<?xml version="1.0" encoding="UTF-8" standalone="no"?>
<!-- Created with Inkscape (http://www.inkscape.org/) -->

<svg
   xmlns:dc="http://purl.org/dc/elements/1.1/"
   xmlns:cc="http://creativecommons.org/ns#"
   xmlns:rdf="http://www.w3.org/1999/02/22-rdf-syntax-ns#"
   xmlns:svg="http://www.w3.org/2000/svg"
   xmlns="http://www.w3.org/2000/svg"
   xmlns:sodipodi="http://sodipodi.sourceforge.net/DTD/sodipodi-0.dtd"
   xmlns:inkscape="http://www.inkscape.org/namespaces/inkscape"
   width="107.98209"
   height="127.05222"
   id="svg5697"
   sodipodi:version="0.32"
   inkscape:version="0.48.1 "
   version="1.0"
   sodipodi:docname="chovynz_Money_Bag_Icon_black_white_line_art_coloring_book_colouring.svg"
   inkscape:output_extension="org.inkscape.output.svg.inkscape">
  <defs
     id="defs5699">
    <inkscape:perspective
       sodipodi:type="inkscape:persp3d"
       inkscape:vp_x="0 : 526.18109 : 1"
       inkscape:vp_y="0 : 1000 : 0"
       inkscape:vp_z="744.09448 : 526.18109 : 1"
       inkscape:persp3d-origin="372.04724 : 350.78739 : 1"
       id="perspective5705" />
  </defs>
  <sodipodi:namedview
     id="base"
     pagecolor="#ffffff"
     bordercolor="#666666"
     borderopacity="1.0"
     gridtolerance="10000"
     guidetolerance="10"
     objecttolerance="10"
     inkscape:pageopacity="0.0"
     inkscape:pageshadow="2"
     inkscape:zoom="2.2651387"
     inkscape:cx="106.03872"
     inkscape:cy="58.248588"
     inkscape:document-units="px"
     inkscape:current-layer="g3635"
     showgrid="false"
     width="128px"
     inkscape:window-width="951"
     inkscape:window-height="719"
     inkscape:window-x="50"
     inkscape:window-y="40"
     inkscape:window-maximized="0" />
  <metadata
     id="metadata5702">
    <rdf:RDF>
      <cc:Work
         rdf:about="">
        <dc:format>image/svg+xml</dc:format>
        <dc:type
           rdf:resource="http://purl.org/dc/dcmitype/StillImage" />
      </cc:Work>
    </rdf:RDF>
  </metadata>
  <g
     inkscape:label="Layer 1"
     inkscape:groupmode="layer"
     id="layer1"
     transform="translate(-0.8925614,-2.3274921)">
    <g
       style="display:inline"
       id="g3635"
       transform="matrix(1.0776677,0,0,0.9338009,-214.84682,-177.08134)"
       inkscape:transform-center-x="-53.542601"
       inkscape:transform-center-y="63.866729">
      <path
         sodipodi:nodetypes="czzzzzzzzzzzzz"
         id="path3236"
         d="M 257.70631,196.39123 C 251.60007,200.1817 246.95776,204.43545 241.84986,198.40664 C 236.74197,192.37784 231.29191,202.4455 227.23428,203.92713 C 223.17666,205.40877 215.04458,196.42079 213.52582,204.18373 C 212.00706,211.94668 218.68943,215.53012 224.95781,218.94993 C 231.2262,222.36974 243.47102,206.93173 241.39419,227.62707 C 239.31737,248.3224 202.47682,242.17195 203.39967,277.28463 C 204.33995,313.06042 223.15795,323.39706 248.7606,324.43881 C 275.03672,325.50796 297.15663,313.39499 297.19915,281.10531 C 297.24255,248.14103 268.32555,243.34603 259.24516,228.93513 C 250.16477,214.52424 260.12115,222.15477 267.51193,218.55533 C 274.90271,214.9559 277.97758,217.50684 282.32578,211.20782 C 286.67399,204.90881 277.05443,202.94623 270.53477,205.83644 C 264.01512,208.72665 263.81256,192.60077 257.70631,196.39123 z"
         style="fill:#ffffff;fill-opacity:1;fill-rule:evenodd;stroke:#000000;stroke-width:6.85734081000000020;stroke-linecap:butt;stroke-linejoin:round;stroke-miterlimit:4;stroke-dasharray:none;stroke-opacity:1" />
      <path
         sodipodi:nodetypes="czc"
         id="path3604"
         d="M 267.47291,268.90985 C 255.21114,251.77882 204.28485,269.84006 251.90616,280.76509 C 299.52748,291.69012 245.89314,315.86404 232.62936,288.90618"
         style="fill:none;fill-rule:evenodd;stroke:#000000;stroke-width:4.89120436;stroke-linecap:round;stroke-linejoin:round;stroke-miterlimit:4;stroke-dasharray:none;stroke-opacity:1" />
      <path
         style="fill:none;fill-rule:evenodd;stroke:#000000;stroke-width:4.89120436;stroke-linecap:round;stroke-linejoin:miter;stroke-miterlimit:4;stroke-dasharray:none;stroke-opacity:1"
         d="M 246.47439,253.93154 L 246.47439,305.44951"
         id="path3606" />
      <path
         id="path3624"
         d="M 256.28074,255.02113 L 256.28074,277.59707 L 256.28074,306.5391"
         style="fill:none;fill-rule:evenodd;stroke:#000000;stroke-width:4.89120436;stroke-linecap:round;stroke-linejoin:miter;stroke-miterlimit:4;stroke-dasharray:none;stroke-opacity:1"
         sodipodi:nodetypes="ccc" />
    </g>
  </g>
</svg>
